<svg width="225" height="81" xmlns="http://www.w3.org/2000/svg"><g fill="none" fill-rule="evenodd"><path d="M87.643 70.87c-12.031 0-19.575-7.83-19.575-18.143V18.638C68.068 8.326 75.612.496 87.643.496c12.03 0 18.811 7.83 18.811 18.142v6.398c0 1.337-1.147 2.482-2.483 2.482H95.76c-1.338 0-2.483-1.145-2.483-2.482v-6.398c0-3.151-1.719-6.397-5.633-6.397-4.298 0-6.111 3.246-6.111 6.397v34.089c0 3.151 1.813 6.398 6.11 6.398 3.915 0 5.634-3.246 5.634-6.398V46.33c0-1.337 1.145-2.483 2.483-2.483h8.212c1.336 0 2.483 1.146 2.483 2.483v6.397c0 10.314-6.78 18.144-18.811 18.144zm51.327-1.146h-25.972c-1.338 0-2.482-1.146-2.482-2.482V3.933c0-1.337 1.145-2.387 2.482-2.387h8.594a2.365 2.365 0 0 1 2.387 2.386v51.66c0 1.337 1.144 2.388 2.482 2.388h12.509c1.335 0 2.481 1.145 2.481 2.482v6.78c0 1.336-1.146 2.482-2.481 2.482zm29.978-50.13c-.094-.67-.67-1.05-1.146-1.05-.477 0-1.05.38-1.05 1.05l-3.055 22.249c-.191 1.335.667 2.387 2.1 2.387h4.106c1.336 0 2.101-1.051 2.004-2.387l-2.959-22.25zm19.194 50.13h-8.69c-1.432 0-2.674-1.05-2.865-2.388l-2.006-10.79c-.286-1.336-1.527-2.482-2.865-2.482h-7.733c-1.433 0-2.674 1.146-2.865 2.482l-2.005 10.79c-.286 1.338-1.528 2.388-2.865 2.388h-8.689c-1.432 0-2.197-1.05-1.91-2.388l13.56-63.404c.285-1.337 1.526-2.387 2.959-2.387h11.364c1.336 0 2.674 1.05 2.96 2.387l13.56 63.404c.286 1.339-.574 2.388-1.91 2.388zm23.848-32.657c-.191.669-.477 1.624-.669 2.484-.094.858-.19 1.622-.19 2.291v25.4a2.466 2.466 0 0 1-2.483 2.482h-8.595c-1.335 0-2.481-1.146-2.481-2.482V41.747c0-.765-.095-1.624-.286-2.578-.096-.764-.288-1.624-.572-2.197L184.585 3.837c-.382-1.241.287-2.291 1.625-2.291h7.83c1.814 0 2.96.955 3.246 2.29l6.016 20.913c.19.67.667.956 1.05.956.478 0 .859-.287 1.05-.956l6.112-20.912c.383-1.336 1.337-2.291 3.15-2.291h7.927c1.432 0 2.1 1.05 1.623 2.29l-12.224 33.23z" fill="#A59B8B"/><g transform="translate(0 1.461)"><path d="M31.938 49.636c-.07.206-.185.577-.327 1.098a41.49 41.49 0 0 0-.683 2.925c-1.478 7.466-1.478 15.756.99 24.076a1.663 1.663 0 0 0 2.072 1.13 1.68 1.68 0 0 0 1.12-2.089c-2.297-7.736-2.297-15.492-.914-22.46.198-1.01.412-1.91.626-2.686a24.398 24.398 0 0 1 .269-.907 1.684 1.684 0 0 0-1.038-2.131 1.665 1.665 0 0 0-2.118 1.045h.003v-.001zm21.534 1.087a17.677 17.677 0 0 1 .267.906c.214.776.428 1.676.628 2.686 1.38 6.969 1.38 14.724-.914 22.462a1.678 1.678 0 0 0 1.118 2.09 1.668 1.668 0 0 0 2.075-1.13c2.467-8.323 2.467-16.614.988-24.08a41.351 41.351 0 0 0-.681-2.925 20.244 20.244 0 0 0-.328-1.097 1.665 1.665 0 0 0-2.116-1.045 1.684 1.684 0 0 0-1.037 2.133zM3.615 52.439c.313-6.84 3.091-11.11 7.571-13.505 1.638-.877 3.406-1.443 5.187-1.753a18.11 18.11 0 0 1 1.766-.218c.333-.023.58-.03.723-.029h-.002a1.67 1.67 0 0 0 1.695-1.648 1.673 1.673 0 0 0-1.635-1.71h-.028c-.227 0-.56.008-.982.038a20.72 20.72 0 0 0-2.107.259c-2.106.368-4.207 1.038-6.183 2.096-5.5 2.944-8.967 8.27-9.337 16.316a1.675 1.675 0 0 0 1.59 1.753 1.668 1.668 0 0 0 1.74-1.6h.002zm86.09-.154c-.37-8.046-3.834-13.372-9.337-16.316-1.976-1.057-4.075-1.729-6.18-2.096a20.676 20.676 0 0 0-2.108-.258 13.91 13.91 0 0 0-.983-.037h-.025a1.675 1.675 0 0 0-1.638 1.708 1.672 1.672 0 0 0 1.695 1.648c-.005 0-.005 0 0 0a9.86 9.86 0 0 1 .72.027c.538.038 1.132.108 1.768.22 1.778.31 3.549.875 5.186 1.753 4.48 2.394 7.259 6.665 7.573 13.505a1.67 1.67 0 0 0 1.74 1.598 1.674 1.674 0 0 0 1.589-1.753z" fill="#C8B585"/><path d="M44.69 64.452c20.434 0 36.999-6.612 36.999-27.19C81.689 16.682 61.882 0 44.69 0 27.5 0 7.692 16.681 7.692 37.26S24.256 64.453 44.69 64.453z" fill="#DDCFAC"/><path d="M41.04 40.38c.242 1.598 1.6 2.793 3.21 2.793 1.611 0 2.97-1.198 3.21-2.798a.5.5 0 1 0-.987-.153c-.168 1.114-1.111 1.945-2.223 1.945-1.111 0-2.054-.83-2.222-1.94a.5.5 0 1 0-.988.151v.001z" fill="#907E59"/><ellipse fill="#907E59" cx="27.646" cy="29.068" rx="2.666" ry="4.196"/><ellipse fill="#907E59" cx="60.987" cy="29.068" rx="2.666" ry="4.196"/><path d="M52.968 1.243c12.447 5.684 23.162 18.58 23.162 33.58 0 20.256-16.34 26.765-36.498 26.765-8.29 0-15.933-1.103-22.06-3.808 6.773 4.929 16.61 6.828 27.561 6.828 20.432 0 36.996-6.61 36.996-27.19 0-17.492-14.312-32.166-29.161-36.175" fill="#C8B585"/></g></g></svg>